<svg xmlns="http://www.w3.org/2000/svg" width="62.427" height="62.427" viewBox="0 0 62.427 62.427">
  <g id="Group_11" data-name="Group 11" transform="translate(-14.286 -14.286)">
    <path id="Path_214" data-name="Path 214" d="M156.131,14.286H112.48a1.291,1.291,0,0,0,0,2.583h43.65a2.392,2.392,0,0,1,2.389,2.389V62.908a1.291,1.291,0,0,0,2.583,0V19.258A4.977,4.977,0,0,0,156.131,14.286Z" transform="translate(-84.389)" fill="#213250"/>
    <path id="Path_215" data-name="Path 215" d="M121.93,48.487H78.279a1.291,1.291,0,0,0,0,2.583h43.65a2.392,2.392,0,0,1,2.389,2.389v43.65a1.291,1.291,0,0,0,2.583,0V53.459A4.977,4.977,0,0,0,121.93,48.487Z" transform="translate(-54.605 -29.784)" fill="#213250"/>
    <path id="Path_216" data-name="Path 216" d="M62.908,82.688H19.258a4.977,4.977,0,0,0-4.972,4.972v43.65a4.977,4.977,0,0,0,4.972,4.972H62.908a4.977,4.977,0,0,0,4.972-4.972V87.66A4.978,4.978,0,0,0,62.908,82.688Zm-4.417,7.735H54.075a1.291,1.291,0,1,1,0-2.583h4.417a4.241,4.241,0,0,1,4.236,4.236v4.417a1.291,1.291,0,0,1-2.583,0V92.076A1.655,1.655,0,0,0,58.492,90.423Z" transform="translate(0 -59.569)" fill="#0090fb"/>
    <path id="Path_217" data-name="Path 217" d="M321.059,132.534a1.291,1.291,0,0,0,1.291-1.291v-4.417a4.241,4.241,0,0,0-4.236-4.236H313.7a1.291,1.291,0,1,0,0,2.583h4.417a1.655,1.655,0,0,1,1.653,1.653v4.417A1.291,1.291,0,0,0,321.059,132.534Z" transform="translate(-259.623 -94.318)" fill="#fff"/>
  </g>
</svg>
