<svg xmlns="http://www.w3.org/2000/svg" width="86.184" height="80.706" viewBox="0 0 86.184 80.706">
  <g id="Group_13" data-name="Group 13" transform="translate(-19.998 -34.999)">
    <path id="Path_220" data-name="Path 220" d="M152.37,42.85v69.309a8.379,8.379,0,0,1-8.164,8.531H78.29a8.961,8.961,0,0,0,6.505-2.8,9.79,9.79,0,0,0,2.679-6.8V42.85Zm-8.878,36.5V49.036H96.453v30.31ZM119,110.24V91.045H96.453V110.24Z" transform="translate(-47.648 -6.417)" fill="#00efd1"/>
    <path id="Path_221" data-name="Path 221" d="M224.8,76.73v30.31H177.76V76.73ZM208.93,102.861V100a6.646,6.646,0,0,0-6.635-6.656.045.045,0,0,0-.022,0h-2.282a6.643,6.643,0,0,0-6.656,6.634v2.885Zm-3.281-17.522v-.007a4.515,4.515,0,0,0-4.514-4.512h-.007a4.517,4.517,0,0,0-4.514,4.516v.005a4.516,4.516,0,0,0,4.517,4.512h0a4.514,4.514,0,0,0,4.514-4.513Z" transform="translate(-128.955 -34.111)" fill="#00acea"/>
    <path id="Path_222" data-name="Path 222" d="M278.655,118.308v2.863h-15.6v-2.885a6.643,6.643,0,0,1,6.656-6.634H272a.045.045,0,0,1,.022,0A6.646,6.646,0,0,1,278.655,118.308Zm-3.281-14.662v0a4.514,4.514,0,0,1-4.513,4.514h0a4.516,4.516,0,0,1-4.517-4.512v-.005a4.516,4.516,0,0,1,4.513-4.516h.008a4.515,4.515,0,0,1,4.514,4.512Z" transform="translate(-198.68 -52.421)" fill="#fedb41"/>
    <rect id="Rectangle_1094" data-name="Rectangle 1094" width="22.552" height="19.194" transform="translate(48.805 84.628)" fill="#fedb41"/>
    <path id="Path_223" data-name="Path 223" d="M46.367,264.18v27.829a9.79,9.79,0,0,1-2.679,6.8,8.961,8.961,0,0,1-6.506,2.8,9.357,9.357,0,0,1-9.183-9.6V264.18Z" transform="translate(-6.541 -187.334)" fill="#00acea"/>
    <path id="Path_224" data-name="Path 224" d="M104.722,35h-64.9a1.375,1.375,0,0,0-1.386,1.433v38.92H21.459A1.489,1.489,0,0,0,20,76.846v27.829a11.188,11.188,0,0,0,3.083,7.794,10.369,10.369,0,0,0,7.56,3.236H96.558a9.8,9.8,0,0,0,9.624-9.964V36.433A1.438,1.438,0,0,0,104.722,35Zm-74.08,77.812a7.486,7.486,0,0,1-5.449-2.348,8.314,8.314,0,0,1-2.273-5.788v-26.4h15.52v26.4a8.347,8.347,0,0,1-2.311,5.788A7.57,7.57,0,0,1,30.642,112.811Zm72.619-7.07a6.877,6.877,0,0,1-6.7,7.043H37.875c.111,0,.258-.2.365-.315a11.222,11.222,0,0,0,3.122-7.794V37.921h61.9Z" transform="translate(0 0)" fill="#083863"/>
    <path id="Path_225" data-name="Path 225" d="M171.221,125.636h47.04a1.461,1.461,0,0,0,0-2.921h-47.04a1.461,1.461,0,1,0,0,2.921Zm47.04,3.469H201.832a1.461,1.461,0,1,0,0,2.921H218.26a1.461,1.461,0,0,0,0-2.921Zm0,6.391H201.832a1.461,1.461,0,1,0,0,2.921H218.26a1.461,1.461,0,0,0,0-2.921Zm0,6.391H201.832a1.461,1.461,0,1,0,0,2.921H218.26a1.461,1.461,0,0,0,0-2.921Zm-24.354-12.782H171.265a1.461,1.461,0,0,0-1.461,1.461v19.172a1.461,1.461,0,0,0,1.461,1.461h22.642a1.461,1.461,0,0,0,1.461-1.461V130.566A1.461,1.461,0,0,0,193.906,129.105Zm-1.643,19.172H172.725V132.027h19.537Zm26,0H201.832a1.461,1.461,0,1,0,0,2.921H218.26a1.461,1.461,0,0,0,0-2.921ZM195.767,103.7c-.041,0-.039.026-.081.026h-2.248a8.068,8.068,0,0,0-8.114,8.041v2.885a1.5,1.5,0,0,0,1.472,1.49h15.6a1.415,1.415,0,0,0,1.375-1.49v-2.861A7.945,7.945,0,0,0,195.767,103.7Zm5.078,9.521h-12.6v-1.451a5.146,5.146,0,0,1,5.2-5.122h2.313a5.073,5.073,0,0,1,5.091,5.142Zm-6.255-10.043h0v-1.5l0,1.442a3.722,3.722,0,1,0-.007.055Zm-2.158-8.211a3.032,3.032,0,0,1,2.165-.895,3.092,3.092,0,1,1,0,6.185h-.007a3.108,3.108,0,0,1-2.158-5.29Z" transform="translate(-122.416 -45.902)" fill="#083863"/>
    <path id="Path_226" data-name="Path 226" d="M171.461,102.232H218.57a1.461,1.461,0,0,0,1.461-1.461V70.461A1.461,1.461,0,0,0,218.57,69H171.461A1.461,1.461,0,0,0,170,70.461v30.31A1.461,1.461,0,0,0,171.461,102.232Zm1.461-30.31h44V99.31h-44Z" transform="translate(-122.612 -27.793)" fill="#083863"/>
  </g>
</svg>
