<svg xmlns="http://www.w3.org/2000/svg" width="82.217" height="105.282" viewBox="0 0 82.217 105.282">
  <g id="Group_12" data-name="Group 12" transform="translate(-4.96 -2.98)">
    <path id="Path_218" data-name="Path 218" d="M57.63,25.987v.35h-.117a15.654,15.654,0,0,0-3.62.292A22.814,22.814,0,0,0,34.915,45.315a.994.994,0,0,0-.058.409,17.113,17.113,0,0,0-.35,3.62,22.837,22.837,0,0,0,11.211,19.62A29.089,29.089,0,0,0,32.4,80.408a27.4,27.4,0,0,0-2.336,4.5H15.412A10.442,10.442,0,0,1,4.96,74.452V72.876A29.634,29.634,0,0,1,22.828,45.665a22.98,22.98,0,1,1,34.8-19.678Z" transform="translate(0 0)" fill="#3071f1"/>
    <path id="Path_219" data-name="Path 219" d="M68.207,76.876v1.577A10.442,10.442,0,0,1,57.755,88.9H19.332A10.442,10.442,0,0,1,8.88,78.452V76.876A29.674,29.674,0,0,1,11.1,65.548a27.4,27.4,0,0,1,2.336-4.5A29.089,29.089,0,0,1,26.748,49.607a22.837,22.837,0,0,1-11.211-19.62,17.114,17.114,0,0,1,.35-3.62.994.994,0,0,1,.058-.409A22.814,22.814,0,0,1,34.923,7.272a15.654,15.654,0,0,1,3.62-.292h.117A22.959,22.959,0,0,1,50.339,49.665a29.222,29.222,0,0,1,9.168,6.19A29.549,29.549,0,0,1,68.207,76.876Z" transform="translate(18.97 19.357)" fill="#90b2f2"/>
  </g>
</svg>
